<svg xmlns="http://www.w3.org/2000/svg" viewBox="0 0 641.69 286.89"><defs><style>.cls-1{fill:#ffcb05;}.cls-1,.cls-2{fill-rule:evenodd;}.cls-2{fill:#f7b72d;}.cls-3{fill:#e6e7e8;}</style></defs><title>logo 1</title><g id="Layer_2" data-name="Layer 2"><g id="Layer_1-2" data-name="Layer 1"><path class="cls-1" d="M14.16,199.4c55.38,12.86,62.57,22.93,74.09,73.84l.65,2.88,2.69-1.69c45.48-28.34,62.58-26.79,107.1,1.4,11.64-50.7,26.28-66.34,77.43-77.84-27.62-44.07-28.33-65.49-.29-109.79C225.13,76.56,209.49,61.93,198,10.78c-44.07,27.61-65.49,28.32-109.78.28C76.28,63,65.45,76.53,13.65,88.25l-2.87.65,1.68,2.69c30.08,48.26,28,60.46.18,104.61l-1.58,2.49,3.1.71Zm5.65-4.22c66.55-49.82,66.7-52.2-.36-102.58,82.28,11.83,84.07,10.26,72.27-72.79,49.82,66.55,52.2,66.7,102.57-.36-11.83,82.28-10.25,84.07,72.79,72.27-66.55,49.81-66.69,52.2.37,102.57-82.29-11.83-84.08-10.25-72.27,72.79-49.82-66.55-52.2-66.7-102.58.37,11.83-82.28,10.25-84.07-72.79-72.27Z"/><path class="cls-2" d="M2.59,145.58c10.35,7.41,18.52,13.77,24.87,19.75a54.05,54.05,0,0,0,4.06-15.11,8.76,8.76,0,1,1-.28-13.15,60.06,60.06,0,0,0-4.11-14.2C20.78,128.73,12.64,134.82,2.41,142L0,143.73l2.59,1.85Zm38.28,36.24a43.84,43.84,0,0,1,3.42,7.93c12.92-1.56,23.08-2.31,31-1.75,3.82-12.81.62-20.44-11.27-26.86-5.17,6-12.88,12.65-23.15,20.68Zm5.78,29.32c-.35,8.64-1.8,18.7-3.93,31l-.5,2.91,3.13-.53c12.44-2.05,22.79-3.18,31.74-3.15a55,55,0,0,0-8-14,8.77,8.77,0,1,1-9.51-9.12,60.42,60.42,0,0,0-12.94-7.14Zm51.25,33.2a51.41,51.41,0,0,1,7.36,3c8.4-10.75,15.3-18.82,21.5-24.2-6.36-11.76-14-14.9-27-11,.61,8.15-.22,18.7-1.9,32.22Zm24.71,16.13c6.64,6.73,13.39,15.43,21.12,26.42,7.82-11,14.92-19.68,22-26.43a61.11,61.11,0,0,0-14.53-3.74,8.76,8.76,0,1,1-15,.14,63.28,63.28,0,0,0-13.6,3.61Zm60.69-12.54a58.76,58.76,0,0,1,6.76-2.82C188.29,231,187.41,220,188,211.6c-12.81-3.81-20.44-.62-26.86,11.27,6.37,5.48,13.46,13.84,22.16,25.06Zm28.61-6.41c9.51-.2,20.35.93,33.17,3.16-2.17-12.93-3.31-23.87-3.12-33.49a65.54,65.54,0,0,0-11.67,7.24,8.64,8.64,0,0,1,2.92,1.93A8.76,8.76,0,1,1,218.93,230a67,67,0,0,0-7,11.57Zm33.6-52.38a60.24,60.24,0,0,1,2.79-6.77c-11.23-8.73-19.61-15.86-25.15-22.24-11.76,6.37-14.9,14-11,27,8.38-.64,19.3.26,33.39,2Zm15.69-24.75c6.59-6.87,15.05-13.74,25.69-21.23-10.67-7.6-19.22-14.53-25.88-21.47a65.91,65.91,0,0,0-3.14,13.37,8.76,8.76,0,1,1,.11,16.18,68.17,68.17,0,0,0,3.22,13.15Zm-13.27-60.8a58.62,58.62,0,0,1-2.82-6.75C231,98.6,220,99.49,211.6,98.89c-3.81,12.82-.62,20.45,11.27,26.86,5.48-6.37,13.84-13.46,25.06-22.16ZM241.52,75c-.2-9.52.93-20.36,3.16-33.18-12.93,2.17-23.87,3.31-33.49,3.12a65.27,65.27,0,0,0,7.24,11.68,8.55,8.55,0,0,1,1.93-2.92A8.76,8.76,0,1,1,230,68a68.28,68.28,0,0,0,11.57,7ZM189.14,41.38a57.5,57.5,0,0,1-6.76-2.78c-8.74,11.23-15.86,19.61-22.25,25.14,6.37,11.77,14,14.9,27,11-.64-8.38.26-19.3,2-33.39ZM164.39,25.69c-6.87-6.58-13.74-15-21.23-25.69-7.66,10.76-14.36,19.36-20.91,26.08a65,65,0,0,0,12.81,3,8.77,8.77,0,1,1,16.18-.12,67.1,67.1,0,0,0,13.15-3.22ZM104.31,39.88A51.08,51.08,0,0,1,97,42.94c1.67,13.57,2.49,24.16,1.91,32.35,12.82,3.82,20.45.62,26.86-11.27-6.19-5.33-13.07-13.38-21.44-24.14ZM75.43,46c-8.72,0-18.74-1.19-30.71-3.25l-2.91-.5.53,3.13A250.73,250.73,0,0,1,45.93,76a60.66,60.66,0,0,0,11.9-7.17,8.68,8.68,0,0,1-4.14-2.32,8.76,8.76,0,1,1,14.68-8.42A63.45,63.45,0,0,0,75.43,46ZM43.78,98.05a44.2,44.2,0,0,1-3.19,8c10.23,8,17.95,14.68,23.16,20.68,11.76-6.36,14.89-14,11-27-7.9.59-18-.17-31-1.75Z"/><path class="cls-3" d="M355.28,118.76a24.57,24.57,0,0,1-.13,2.76,8.68,8.68,0,0,1-.4,1.85,2.14,2.14,0,0,1-.6,1,1.35,1.35,0,0,1-.85.27,5.28,5.28,0,0,1-2.33-1,32.45,32.45,0,0,0-4.27-2.18,46.46,46.46,0,0,0-6.33-2.15,33.09,33.09,0,0,0-8.56-1,23.5,23.5,0,0,0-9.41,1.81,20.31,20.31,0,0,0-7.2,5.08,22.79,22.79,0,0,0-4.59,7.92,31,31,0,0,0-1.6,10.22,33,33,0,0,0,1.62,10.81A22,22,0,0,0,315.2,162a18.93,18.93,0,0,0,7.07,4.76,24.62,24.62,0,0,0,9.09,1.61,21.79,21.79,0,0,0,4.82-.55,18.31,18.31,0,0,0,4.44-1.66V149.54H327.05a1.71,1.71,0,0,1-1.55-1.25,11.23,11.23,0,0,1-.55-4.23,19.13,19.13,0,0,1,.14-2.61,6.06,6.06,0,0,1,.41-1.68,2.41,2.41,0,0,1,.66-.94,1.38,1.38,0,0,1,.89-.31h24.19a3.84,3.84,0,0,1,1.58.31,3.55,3.55,0,0,1,1.21.9,4.35,4.35,0,0,1,.82,1.48,6.84,6.84,0,0,1,.26,2v28.52a6.9,6.9,0,0,1-.57,2.89,4.14,4.14,0,0,1-2.38,2c-1.21.49-2.7,1-4.46,1.51s-3.61.95-5.51,1.33-3.82.64-5.75.83-3.89.26-5.86.26A45,45,0,0,1,315.22,178a30.27,30.27,0,0,1-18.67-18.54,48,48,0,0,1,.18-31.06,33.17,33.17,0,0,1,7.52-11.91A32.58,32.58,0,0,1,316,109a43.2,43.2,0,0,1,15.36-2.59,52.24,52.24,0,0,1,8.48.63,48.68,48.68,0,0,1,6.67,1.55,25.79,25.79,0,0,1,4.73,2,11.64,11.64,0,0,1,2.62,1.83,4.57,4.57,0,0,1,1.1,2.19,20.46,20.46,0,0,1,.32,4.18Z"/><path class="cls-3" d="M437,174.16a5.77,5.77,0,0,1-.44,2.29,4.79,4.79,0,0,1-1.19,1.64,4.59,4.59,0,0,1-1.77,1,7.82,7.82,0,0,1-2.08.31h-6.2A12.6,12.6,0,0,1,422,179a6.55,6.55,0,0,1-2.6-1.4,12.13,12.13,0,0,1-2.31-2.78,46.65,46.65,0,0,1-2.47-4.51l-17.84-33.48c-1-2-2.08-4.14-3.16-6.45s-2-4.55-2.87-6.72h-.11c.15,2.64.26,5.29.34,7.93s.09,5.37.09,8.16v37.49a1.6,1.6,0,0,1-.3,1,2.17,2.17,0,0,1-1,.76,8.15,8.15,0,0,1-2,.47,24.53,24.53,0,0,1-3.27.17,24,24,0,0,1-3.21-.17,7.75,7.75,0,0,1-2-.47,2.06,2.06,0,0,1-1-.76,1.81,1.81,0,0,1-.28-1V112.83a4.82,4.82,0,0,1,1.53-3.89,5.49,5.49,0,0,1,3.72-1.31H391a14.31,14.31,0,0,1,3.53.36,7.57,7.57,0,0,1,2.57,1.19,9.06,9.06,0,0,1,2.13,2.31,26.09,26.09,0,0,1,2,3.61l14,26.18c.81,1.59,1.6,3.16,2.4,4.69s1.57,3.06,2.3,4.59,1.46,3,2.16,4.52,1.38,2.94,2,4.42h.05c-.11-2.59-.18-5.27-.24-8.09s-.08-5.48-.08-8V109.79a1.86,1.86,0,0,1,.32-1,3.08,3.08,0,0,1,1.12-.77,6.89,6.89,0,0,1,2-.45,28.78,28.78,0,0,1,3.27-.16,27.25,27.25,0,0,1,3.15.16,6,6,0,0,1,2,.45,2.24,2.24,0,0,1,1,.77,1.91,1.91,0,0,1,.29,1v64.37Z"/><path class="cls-3" d="M503,157.78a22.24,22.24,0,0,1-2.09,9.92,20.48,20.48,0,0,1-5.71,7.1,24.68,24.68,0,0,1-8.41,4.29,38.2,38.2,0,0,1-17.19.83,37.32,37.32,0,0,1-5.61-1.45,24.62,24.62,0,0,1-4.09-1.82,11.18,11.18,0,0,1-2.34-1.66,3.93,3.93,0,0,1-1-2.06,18.57,18.57,0,0,1-.3-3.91c0-1.15,0-2.1.09-2.87a9.63,9.63,0,0,1,.36-1.89,2.15,2.15,0,0,1,.68-1,1.52,1.52,0,0,1,1-.3,4.7,4.7,0,0,1,2.19.9,34.1,34.1,0,0,0,8.9,4,25.46,25.46,0,0,0,7.12.9,16.54,16.54,0,0,0,4.76-.62,10.9,10.9,0,0,0,3.57-1.81,7.57,7.57,0,0,0,2.23-2.87,9,9,0,0,0,.78-3.82,6.71,6.71,0,0,0-1.32-4.18,12.89,12.89,0,0,0-3.46-3.1,37.55,37.55,0,0,0-4.84-2.55c-1.81-.79-3.68-1.64-5.59-2.51a51.78,51.78,0,0,1-5.59-3,23.37,23.37,0,0,1-4.86-4.05,19.24,19.24,0,0,1-3.46-5.55,20.12,20.12,0,0,1-1.32-7.71,20.45,20.45,0,0,1,1.91-9,18.12,18.12,0,0,1,5.16-6.46,21.8,21.8,0,0,1,7.63-3.86,35.18,35.18,0,0,1,14.42-.89,35.48,35.48,0,0,1,4.76,1.06,28.93,28.93,0,0,1,3.93,1.49,8.78,8.78,0,0,1,2.26,1.38,3.84,3.84,0,0,1,.76,1,4.4,4.4,0,0,1,.32,1,9.93,9.93,0,0,1,.21,1.6c0,.65,0,1.46,0,2.42s0,2-.08,2.71a9.84,9.84,0,0,1-.28,1.83,1.91,1.91,0,0,1-.55,1,1.41,1.41,0,0,1-1,.34,4.73,4.73,0,0,1-2-.78c-.89-.51-2-1.07-3.27-1.68a28.37,28.37,0,0,0-4.48-1.66,19.33,19.33,0,0,0-5.59-.76,12.84,12.84,0,0,0-4.14.59,8.38,8.38,0,0,0-3,1.6,6.39,6.39,0,0,0-1.78,2.46,8.23,8.23,0,0,0-.59,3,6.75,6.75,0,0,0,1.31,4.14,13,13,0,0,0,3.49,3.1,34.1,34.1,0,0,0,4.95,2.53c1.86.79,3.73,1.65,5.65,2.53a59.13,59.13,0,0,1,5.65,3,22.86,22.86,0,0,1,4.92,4,18.37,18.37,0,0,1,4.81,13Z"/><path class="cls-3" d="M564.48,157.78a22.24,22.24,0,0,1-2.09,9.92,20.48,20.48,0,0,1-5.71,7.1,24.68,24.68,0,0,1-8.41,4.29,38.2,38.2,0,0,1-17.19.83,37.32,37.32,0,0,1-5.61-1.45,24.62,24.62,0,0,1-4.09-1.82A11.18,11.18,0,0,1,519,175a3.93,3.93,0,0,1-1-2.06,18.57,18.57,0,0,1-.3-3.91c0-1.15,0-2.1.09-2.87a9.63,9.63,0,0,1,.36-1.89,2.15,2.15,0,0,1,.68-1,1.52,1.52,0,0,1,1-.3,4.7,4.7,0,0,1,2.19.9,34.1,34.1,0,0,0,8.9,4,25.46,25.46,0,0,0,7.12.9,16.54,16.54,0,0,0,4.76-.62,10.9,10.9,0,0,0,3.57-1.81,7.57,7.57,0,0,0,2.23-2.87,9,9,0,0,0,.78-3.82,6.71,6.71,0,0,0-1.32-4.18,12.89,12.89,0,0,0-3.46-3.1,37.55,37.55,0,0,0-4.84-2.55c-1.81-.79-3.68-1.64-5.59-2.51a51.78,51.78,0,0,1-5.59-3,23.37,23.37,0,0,1-4.86-4.05,19.24,19.24,0,0,1-3.46-5.55,20.12,20.12,0,0,1-1.32-7.71,20.45,20.45,0,0,1,1.91-9,18.12,18.12,0,0,1,5.16-6.46,21.8,21.8,0,0,1,7.63-3.86,35.18,35.18,0,0,1,14.42-.89,35.48,35.48,0,0,1,4.76,1.06,28.93,28.93,0,0,1,3.93,1.49,8.78,8.78,0,0,1,2.26,1.38,3.84,3.84,0,0,1,.76,1,4.4,4.4,0,0,1,.32,1,9.93,9.93,0,0,1,.21,1.6c0,.65,0,1.46,0,2.42s0,2-.08,2.71a9.84,9.84,0,0,1-.28,1.83,1.91,1.91,0,0,1-.55,1,1.41,1.41,0,0,1-1,.34,4.73,4.73,0,0,1-2-.78c-.89-.51-2-1.07-3.27-1.68a28.37,28.37,0,0,0-4.48-1.66,19.33,19.33,0,0,0-5.59-.76,12.84,12.84,0,0,0-4.14.59,8.38,8.38,0,0,0-3,1.6,6.39,6.39,0,0,0-1.78,2.46,8.23,8.23,0,0,0-.59,3,6.75,6.75,0,0,0,1.31,4.14,13,13,0,0,0,3.49,3.1,34.1,34.1,0,0,0,5,2.53c1.86.79,3.73,1.65,5.65,2.53a59.13,59.13,0,0,1,5.65,3,22.86,22.86,0,0,1,4.92,4,18.37,18.37,0,0,1,4.81,13Z"/><path class="cls-3" d="M640.83,173.84a21.49,21.49,0,0,1,.83,3.16,1.89,1.89,0,0,1-.46,1.73,3.42,3.42,0,0,1-2.15.72c-1,.1-2.46.15-4.27.15s-3.35,0-4.4-.09a12.45,12.45,0,0,1-2.4-.32,2.23,2.23,0,0,1-1.17-.7,4.12,4.12,0,0,1-.55-1.17l-4.82-14.38H594.53l-4.53,14a4.46,4.46,0,0,1-.59,1.3,2.31,2.31,0,0,1-1.15.83,9.31,9.31,0,0,1-2.27.42c-1,.07-2.26.11-3.85.11a34.48,34.48,0,0,1-4-.17,3,3,0,0,1-2-.81,2.12,2.12,0,0,1-.4-1.8,19,19,0,0,1,.83-3.09l22.09-63.55a6.06,6.06,0,0,1,.77-1.53,3,3,0,0,1,1.42-.89,11.55,11.55,0,0,1,2.69-.37c1.13-.06,2.66-.1,4.53-.1,2.17,0,3.91,0,5.21.1a14.47,14.47,0,0,1,3,.37,2.8,2.8,0,0,1,1.55.93,5.13,5.13,0,0,1,.81,1.66l22.15,63.49Zm-32.9-52.53h-.06l-10.12,30.44h20.31l-10.13-30.44Z"/></g></g></svg>